<svg width="32" height="32" viewBox="0 0 32 32" fill="none" xmlns="http://www.w3.org/2000/svg">
<path d="M16 0C24.8366 0 32 7.16344 32 16C32 24.8366 24.8366 32 16 32C7.16344 32 0 24.8366 0 16C0 7.16344 7.16344 0 16 0ZM9.52539 10C9.09169 10.0006 8.72898 10.1438 8.4375 10.4297C8.14598 10.7157 8 11.0732 8 11.501V21.499C8.00063 21.9274 8.14661 22.2853 8.4375 22.5713C8.72835 22.8571 9.09142 23 9.52637 23H23.4746C23.9083 23.0006 24.271 22.8577 24.5625 22.5713C24.854 22.2847 25 21.9271 25 21.5V11.501C24.9994 11.0738 24.8534 10.7163 24.5625 10.4297C24.2717 10.1432 23.9089 10 23.4746 10H9.52539ZM24.0557 11.75L16.5 16.6074L8.94434 11.75L9.23535 10.9287L16.5 15.5713L23.7646 10.9287L24.0557 11.75Z" fill="#F1D3A9"/>
</svg>
