<svg width="34" height="32" viewBox="0 0 34 32" fill="none" xmlns="http://www.w3.org/2000/svg">
<path d="M17 0C7.4375 0 0 7.22581 0 16.5161C0 27.3548 10.0938 32 11.6875 32C12.75 32 12.75 31.4839 12.75 30.9677V28.3871C9.03125 29.4194 7.4375 27.3548 6.90625 25.8064C6.90625 25.8064 6.90625 25.2903 5.84375 24.2581C5.3125 23.7419 3.1875 22.7097 5.3125 22.7097C6.90625 22.7097 7.96875 24.7742 7.96875 24.7742C9.5625 26.8387 11.6875 26.3226 12.75 25.8064C12.75 24.7742 13.8125 23.7419 13.8125 23.7419C9.5625 23.2258 6.375 21.6774 6.375 16C6.375 13.9355 6.90625 12.3871 7.96875 11.3548C7.96875 11.3548 6.90625 9.29032 7.96875 6.70968C7.96875 6.70968 10.625 6.70968 12.75 8.77419C14.3438 7.74194 19.6562 7.74194 21.25 8.77419C23.375 6.70968 26.0312 6.70968 26.0312 6.70968C27.0938 10.3226 26.0312 11.3548 26.0312 11.3548C27.0938 12.3871 27.625 13.9355 27.625 16C27.625 21.6774 23.9062 23.2258 20.1875 23.7419C20.7188 24.2581 21.25 25.2903 21.25 26.8387V30.9677C21.25 31.4839 21.25 32 22.3125 32C23.9062 32 34 27.3548 34 16.5161C34 7.22581 26.5625 0 17 0Z" fill="#F1D3A9"/>
</svg>
