<svg width="32" height="32" viewBox="0 0 32 32" fill="none" xmlns="http://www.w3.org/2000/svg">
<path fill-rule="evenodd" clip-rule="evenodd" d="M16 0C7.16354 0 0 7.16354 0 16C0 24.8365 7.16354 32 16 32C24.8365 32 32 24.8365 32 16C32 7.16354 24.8365 0 16 0ZM16.1622 7.44186C11.3682 7.44186 7.44186 11.2521 7.44186 16C7.44186 20.7479 11.3682 24.5581 16.1622 24.5581C19.0527 24.5581 21.1334 23.4716 22.5057 21.8835C23.8452 20.3297 24.4391 18.3769 24.5552 16.698L24.6385 15.5044H17.2517V17.7369H22.1455C21.9178 18.6925 21.4876 19.645 20.8149 20.4249C19.8891 21.498 18.435 22.3256 16.1622 22.3256C12.5559 22.3256 9.67442 19.4709 9.67442 16C9.67442 12.5291 12.5559 9.67442 16.1622 9.67442C17.8515 9.67442 19.386 10.3025 20.5366 11.331L22.0234 9.664C20.4096 8.22746 18.3228 7.4363 16.1622 7.44186Z" fill="#F1D3A9"/>
</svg>
